<svg xmlns="http://www.w3.org/2000/svg" xmlns:xlink="http://www.w3.org/1999/xlink" width="18px" height="18px">
<path fill-rule="evenodd"  opacity="0.502" fill="rgb(109, 109, 109)" d="M17.584,17.059 L17.058,17.584 C16.529,18.112 15.672,18.112 15.144,17.584 L11.832,14.276 C10.644,15.020 9.239,15.451 7.733,15.451 C3.462,15.451 -0.000,11.992 -0.000,7.725 C-0.000,3.459 3.462,-0.000 7.733,-0.000 C12.003,-0.000 15.465,3.459 15.465,7.725 C15.465,9.239 15.029,10.650 14.277,11.842 L17.584,15.146 C18.113,15.674 18.113,16.530 17.584,17.059 ZM7.733,2.138 C4.644,2.138 2.140,4.640 2.140,7.725 C2.140,10.811 4.644,13.313 7.733,13.313 C10.821,13.313 13.325,10.811 13.325,7.725 C13.325,4.640 10.821,2.138 7.733,2.138 Z"/>
</svg>
