<svg xmlns="http://www.w3.org/2000/svg" xmlns:xlink="http://www.w3.org/1999/xlink" width="53px" height="35px">
<path class="icon-bar" fill-rule="evenodd" fill="rgb(187, 187, 187)" d="M14.738,25.492 L38.262,25.492 C38.946,25.492 39.500,25.997 39.500,26.620 L39.500,27.372 C39.500,27.995 38.946,28.500 38.262,28.500 L14.738,28.500 C14.054,28.500 13.500,27.995 13.500,27.372 L13.500,26.620 C13.500,25.997 14.054,25.492 14.738,25.492 Z"/>
<path class="icon-bar" fill-rule="evenodd"  fill="rgb(187, 187, 187)" d="M14.738,18.492 L38.262,18.492 C38.946,18.492 39.500,18.997 39.500,19.620 L39.500,20.372 C39.500,20.995 38.946,21.500 38.262,21.500 L14.738,21.500 C14.054,21.500 13.500,20.995 13.500,20.372 L13.500,19.620 C13.500,18.997 14.054,18.492 14.738,18.492 Z"/>
<path class="icon-bar" fill-rule="evenodd"  fill="rgb(187, 187, 187)" d="M14.738,11.492 L38.262,11.492 C38.946,11.492 39.500,11.997 39.500,12.620 L39.500,13.372 C39.500,13.995 38.946,14.500 38.262,14.500 L14.738,14.500 C14.054,14.500 13.500,13.995 13.500,13.372 L13.500,12.620 C13.500,11.997 14.054,11.492 14.738,11.492 Z"/>
</svg>